<?xml version="1.0" standalone="no"?>
<?xml-stylesheet href="light.css" type="text/css"?>
<!DOCTYPE svg PUBLIC "-//W3C//DTD SVG 1.1//EN" "http://www.w3.org/Graphics/SVG/1.1/DTD/svg11.dtd">
<svg xmlns="http://www.w3.org/2000/svg" class="railroad-diagram" width="638" height="110" viewBox="0 0 638 110"><g transform="translate(.5 .5)"><g><path d="M40 55h0"></path><path d="M598 55h0"></path><path d="M40 55h20"></path><g><path d="M60 55h0"></path><path d="M578 55h0"></path><g class="terminal"><path d="M60 55h0"></path><path d="M106 55h0"></path><rect x="60" y="44" width="46" height="22" rx="0" ry="0"></rect><text x="83" y="59">ON</text></g><path d="M106 55h10"></path><path d="M116 55h10"></path><g class="non-terminal"><path d="M126 55h0"></path><path d="M260 55h0"></path><rect x="126" y="44" width="134" height="22" rx="8" ry="8"></rect><text x="193" y="59">joinCondition</text></g><path d="M260 55h10"></path><g><path d="M270 55h0"></path><path d="M578 55h0"></path><path d="M270 55a10 10 0 0 0 10 -10v-15a10 10 0 0 1 10 -10"></path><g><path d="M290 20h268"></path></g><path d="M558 20a10 10 0 0 1 10 10v15a10 10 0 0 0 10 10"></path><path d="M270 55h20"></path><g><path d="M290 55h0"></path><path d="M558 55h0"></path><path d="M290 55h10"></path><g><path d="M300 55h0"></path><path d="M548 55h0"></path><path d="M300 55h20"></path><g><path d="M320 55h0"></path><path d="M528 55h0"></path><g class="terminal"><path d="M320 55h0"></path><path d="M374 55h0"></path><rect x="320" y="44" width="54" height="22" rx="0" ry="0"></rect><text x="347" y="59">AND</text></g><path d="M374 55h10"></path><path d="M384 55h10"></path><g class="non-terminal"><path d="M394 55h0"></path><path d="M528 55h0"></path><rect x="394" y="44" width="134" height="22" rx="8" ry="8"></rect><text x="461" y="59">joinCondition</text></g></g><path d="M528 55h20"></path></g><path d="M548 55h10"></path><path d="M300 55a10 10 0 0 0 -10 10v15a10 10 0 0 0 10 10"></path><g><path d="M300 90h248"></path></g><path d="M548 90a10 10 0 0 0 10 -10v-15a10 10 0 0 0 -10 -10"></path></g><path d="M558 55h20"></path></g></g><path d="M578 55h20"></path></g></g></svg>
